<svg aria-hidden="true" style="position: absolute; width: 0; height: 0; overflow: hidden;" version="1.1" xmlns="http://www.w3.org/2000/svg" xmlns:xlink="http://www.w3.org/1999/xlink">
<defs>
<symbol id="icon-copy_button" viewBox="0 0 32 32">
<path d="M28.892 5.196h-4.322v-3.835c0-0.751-0.609-1.361-1.361-1.361h-20.102c-0.751 0-1.361 0.609-1.361 1.361v24.083c0 0.751 0.609 1.361 1.361 1.361h4.322v3.835c0 0.751 0.609 1.361 1.361 1.361h20.102c0.751 0 1.361-0.609 1.361-1.361v-24.083c0-0.751-0.609-1.361-1.361-1.361zM4.468 24.083v-21.362h17.381v2.475h-13.058c-0.751 0-1.361 0.609-1.361 1.361v17.527h-2.962zM27.532 29.279h-17.381v-21.362h17.381v21.362z"></path>
</symbol>
<symbol id="icon-down" viewBox="0 0 32 32">
<path d="M31.788 8.694c0-0.315-0.12-0.629-0.36-0.869-0.48-0.48-1.259-0.48-1.738 0l-13.708 13.708-13.708-13.708c-0.48-0.48-1.259-0.48-1.739 0s-0.48 1.259 0 1.739l14.577 14.577c0.48 0.48 1.259 0.48 1.738 0l14.577-14.577c0.24-0.24 0.36-0.555 0.36-0.869z"></path>
</symbol>
</defs>
</svg>
